<svg id="Layer_1" data-name="Layer 1" xmlns="http://www.w3.org/2000/svg" viewBox="0 0 950 230"><defs><style>.cls-1{fill:#a82626;}</style></defs><path class="cls-1" d="M49,41.42H72.83v144H49Zm90,0V59.2H80.83V41.42ZM133,120.53H80.83v-16H133ZM80.83,167.6H139v17.77H80.83Z"/><path class="cls-1" d="M152.35,41.42h26.76l23.44,53.91v44.73l-20.7,45.31H154.7l36.52-69.92Zm108.4,0-38.87,74,36.53,69.92H231.26L210.56,136V91.42l23.43-50Z"/><path class="cls-1" d="M277.58,41.42H301v144H277.58Zm41.41,0a58.33,58.33,0,0,1,18.16,2.93,49.45,49.45,0,0,1,16.12,8.79A46.09,46.09,0,0,1,364.79,67.3,39.29,39.29,0,0,1,369.19,86a50.84,50.84,0,0,1-3.72,19.82,41.38,41.38,0,0,1-10.35,14.94,46.52,46.52,0,0,1-16,9.38,61.79,61.79,0,0,1-20.71,3.32H309V116.23h13.48a25.54,25.54,0,0,0,8.49-1.47,21.52,21.52,0,0,0,7.72-4.78,23.46,23.46,0,0,0,5.66-9.28A43.88,43.88,0,0,0,346.53,86a39.61,39.61,0,0,0-1-8.11,23.19,23.19,0,0,0-4-8.79,23.59,23.59,0,0,0-8.5-7q-5.46-2.84-14.45-2.83H309V41.42Z"/><path class="cls-1" d="M381.33,41.42h23.83v144H381.33Zm90,0V59.2H413.16V41.42Zm-6.06,79.11H413.16v-16h52.15ZM413.16,167.6h58.21v17.77H413.16Z"/><path class="cls-1" d="M512.22,41.42V167.6h66.21v17.77h-90V41.42Z"/><path class="cls-1" d="M611.08,41.42V167.6H677.3v17.77h-90V41.42Z"/><path class="cls-1" d="M686.51,41.42h23.83v144H686.51Zm90,0V59.2h-58.2V41.42Zm-6.06,79.11H718.35v-16h52.14ZM718.35,167.6h58.2v17.77h-58.2Z"/><path class="cls-1" d="M794.16,41.42H817.6v144H794.16Zm43.36,0q18.16,0,31.93,5.77a66.29,66.29,0,0,1,22.86,15.33,63.08,63.08,0,0,1,13.57,21.77,72.27,72.27,0,0,1,4.49,25.1q0,17.77-3.81,30.37a75.81,75.81,0,0,1-9.66,21.1,49.89,49.89,0,0,1-13.19,13.38,65.64,65.64,0,0,1-14.16,7.32,58.5,58.5,0,0,1-12.5,3.13,78.84,78.84,0,0,1-8.4.68h-23V168.18h15.23q23.83,0,34.38-15.23t10.54-44.14A74.25,74.25,0,0,0,883.61,91a37.69,37.69,0,0,0-8.3-15.91q-6.15-7.14-16.7-11.53T831.27,59.2h-5.66V41.42Z"/><path class="cls-1" d="M3,3.5v223H947V3.5Zm924,203H23V23.5H927Z"/></svg>