<svg xmlns="http://www.w3.org/2000/svg" viewBox="0 0 566.93 722.83"><defs><style>.cls-1{fill:#efa750;}.cls-2{fill:#ce8d46;}.cls-3{fill:#961813;}</style></defs><g id="gryffindor"><path class="cls-1" d="M554.68,182.7S548.62,289.39,541,347c-10.82,82.19-31.83,159.14-31.83,159.14s-37.89,54.57-92.46,97c-100.34,78-124.29,89.43-134.89,89.43S247.3,681.18,147,603.14c-54.57-42.44-92.46-97-92.46-97S33.49,429.18,22.67,347C15.09,289.39,9,182.7,9,182.7s13.64-10,37.89-20.63C62,155.48,83.3,146.91,83.3,146.91L81.78,71.13s113.68-50,200.08-50,200.07,50,200.07,50l-1.52,75.78s21.3,8.57,36.38,15.16C541,172.68,554.68,182.7,554.68,182.7Z"/><path class="cls-2" d="M526.42,195.08s-5.45,95.86-12.26,147.6c-9.72,73.85-28.6,143-28.6,143s-34,49-83.06,87.16c-90.15,70.11-111.66,80.34-121.2,80.34s-31-10.23-121.19-80.34C111.09,534.69,77,485.66,77,485.66s-18.87-69.13-28.59-143c-6.81-51.74-12.26-147.6-12.26-147.6s12.26-9,34-18.53c13.55-5.92,32.69-13.62,32.69-13.62l-1.37-68.08S203.68,49.91,281.3,49.91,461.05,94.85,461.05,94.85l-1.36,68.08s19.13,7.7,32.68,13.62C514.16,186.08,526.42,195.08,526.42,195.08Z"/><path class="cls-3" d="M513.83,208.13s-5.14,90.46-11.56,139.29c-9.18,69.69-27,134.93-27,134.93s-32.13,46.27-78.39,82.25c-85.07,66.17-105.38,75.82-114.37,75.82s-29.3-9.65-114.38-75.82c-46.26-36-78.39-82.25-78.39-82.25s-17.81-65.24-27-134.93C56.34,298.59,51.2,208.13,51.2,208.13s11.57-8.49,32.13-17.49c12.79-5.59,30.84-12.85,30.84-12.85l-1.28-64.25s96.38-42.41,169.63-42.41,169.63,42.41,169.63,42.41l-1.29,64.25s18.06,7.26,30.84,12.85C502.27,199.64,513.83,208.13,513.83,208.13Z"/><path class="cls-2" d="M476.59,226.53s-4.31,76-9.71,117c-7.7,58.52-22.66,113.3-22.66,113.3s-27,38.84-65.82,69.06c-71.43,55.55-88.48,63.66-96,63.66s-24.6-8.11-96-63.66c-38.85-30.22-65.82-69.06-65.82-69.06s-15-54.78-22.66-113.3c-5.4-41-9.71-117-9.71-117s9.71-7.13,27-14.69c10.74-4.69,25.9-10.79,25.9-10.79l-1.08-54s80.93-35.6,142.43-35.6S424.8,147.1,424.8,147.1l-1.08,54s15.16,6.1,25.9,10.79C466.88,219.4,476.59,226.53,476.59,226.53Z"/><path class="cls-1" d="M468.29,231.89s-4.13,72.7-9.3,112c-7.37,56-21.69,108.46-21.69,108.46s-25.82,37.18-63,66.1c-68.37,53.19-84.69,60.94-91.92,60.94s-23.55-7.75-91.93-60.94c-37.19-28.92-63-66.1-63-66.1s-14.32-52.44-21.69-108.46c-5.16-39.25-9.3-111.95-9.3-111.95s9.3-6.83,25.83-14.06c10.27-4.49,24.79-10.33,24.79-10.33l-1-51.64s77.47-34.09,136.35-34.09,136.34,34.09,136.34,34.09l-1,51.64s14.52,5.84,24.79,10.33C459,225.06,468.29,231.89,468.29,231.89Z"/><path class="cls-3" d="M460.71,235.13s-4,69.71-8.92,107.34c-7.07,53.71-20.79,104-20.79,104s-24.76,35.66-60.42,63.39c-65.56,51-81.21,58.43-88.14,58.43s-22.58-7.44-88.14-58.43c-35.65-27.73-60.41-63.39-60.41-63.39s-13.73-50.28-20.8-104c-5-37.63-8.92-107.34-8.92-107.34s8.92-6.55,24.76-13.48c9.86-4.31,23.77-9.9,23.77-9.9l-1-49.52S226,129.54,282.44,129.54s130.73,32.69,130.73,32.69l-1,49.52s13.91,5.59,23.77,9.9C451.79,228.58,460.71,235.13,460.71,235.13Z"/><path class="cls-1" d="M207.79,432q14.06-1,18.86-5.92t4.81-20.12V279.79q0-16.07-4.88-20.29t-18.79-5.75v-7.24h91.76q36.46,0,55.48,11.84T374,299a50.17,50.17,0,0,1-7.45,26.38q-7.45,12.33-24.58,19.84a88,88,0,0,1-25.9,6.41q-12.94,1.11-38.43,1.11v53.19q0,15.75,5.3,20.61T302.75,432v7.24h-95Zm103.87-95q13.5-8.62,13.51-37.18,0-19.48-6.55-31.47t-25.06-12q-8.49,0-12.19,2t-3.69,7.87v76.58Q303.17,342.45,311.66,337Z"/></g></svg>