<svg xmlns="http://www.w3.org/2000/svg" viewBox="0 0 566.93 722.83"><defs><style>.cls-1{fill:#efa750;}.cls-2{fill:#961813;}.cls-3{fill:#e5813a;}.cls-4{fill:#d7643b;}.cls-5{fill:#fbaa37;}.cls-6{fill:#cb4b3d;}</style></defs><g id="gryffindor"><path class="cls-1" d="M9.27,6.53H556.92c.61,3.35.43,706.52-.24,709.78-1-.63-2-1.17-2.89-1.77l-75.87-49.85-140.07-92c-17.76-11.66-35.54-23.29-53.24-35-2-1.34-3.43-1.41-5.51,0q-44,29.1-88.19,58l-122,80.17-59,38.73c-.94.61-1.9,1.19-2.77,1.73L6.73,716c-.07-.06-.17-.12-.19-.2a1.69,1.69,0,0,1-.12-.55q0-10.25,0-20.49Q7.87,350.75,9.27,6.53Zm9.54,5.55c-.17,3-.45,5.78-.46,8.51q-.33,71.13-.6,142.27-.29,73.41-.56,146.82l-.57,144.26q-.29,73-.56,146-.15,47.1-.17,94.2c0,.81.11,1.62.19,2.87,1.19-.72,2.07-1.21,2.92-1.76l55.89-36.65,54.7-35.89L182.4,588q27.82-18.24,55.65-36.51c13.79-9,27.6-18.07,41.33-27.22,1.91-1.27,3.29-1.29,5,.08s3.48,2.29,5.22,3.43l54.47,35.73,53.51,35.11,55.66,36.49,55.16,36.22,36.63,24c.75.49,1.53.92,2.43,1.45.58-4,.41-682.61-.15-684.76Z"/><path class="cls-2" d="M18.81,12.08H547.35c.56,2.15.73,680.77.15,684.76-.9-.53-1.68-1-2.43-1.45l-36.63-24-55.16-36.22-55.66-36.49-53.51-35.11-54.47-35.73c-1.74-1.14-3.58-2.15-5.22-3.43s-3.13-1.35-5-.08c-13.73,9.15-27.54,18.17-41.33,27.22Q210.23,569.8,182.4,588l-52.81,34.63-54.7,35.89L19,695.21c-.85.55-1.73,1-2.92,1.76-.08-1.25-.19-2.06-.19-2.87q.07-47.1.17-94.2.24-73,.56-146l.57-144.26q.28-73.41.56-146.82.29-71.15.6-142.27C18.36,17.86,18.64,15.12,18.81,12.08ZM297.59,215.21l-.63.88a3.26,3.26,0,0,0,.94-.17c.22-.1.35-.39.53-.59a4.91,4.91,0,0,0,.15-.51,16.56,16.56,0,0,0,2.19-1.21q19.29-14.81,38.54-29.65,17.24-13.25,34.52-26.45a2.61,2.61,0,0,0,1.12-3.38c-2.55-7.49-5.76-14.65-10.73-20.88-3.48-4.37-7.15-8.59-10.65-13q-21.18-26.37-42.29-52.81A3.58,3.58,0,0,0,308.13,66c-3,.08-6.08.14-9.11,0a18.46,18.46,0,0,0-7.74,1.43A537,537,0,0,0,237.19,92a511.77,511.77,0,0,0-47.92,28.43c-10.45,7-20.59,14.56-30.9,21.81a3.74,3.74,0,0,0-1.79,3.28c-.05,2.74-.33,5.48-.47,8.22q-.6,11.35-1.14,22.7-.61,13.62-1.14,27.26c-.23,5.68-.39,11.36-.57,17-.2,6.25-.43,12.5-.56,18.76-.22,11.46-.53,22.94-.53,34.41,0,17.16.21,34.32.42,51.48.12,10.05.41,20.09.68,30.14.11,4.35.34,8.71.53,13.06a10.73,10.73,0,0,0,.25,2A48.92,48.92,0,0,0,160,384c5.46,9.18,12.35,17.26,19.8,24.85,6.25,6.35,12.7,12.51,19.22,18.58,4.78,4.46,9.79,8.68,14.74,12.95q9.15,7.89,18.38,15.68T251,471.64a6.84,6.84,0,0,0,2.72,1.36,80.53,80.53,0,0,0,8.81,1.7c3.36.39,6.88,1,10.12.45a145.51,145.51,0,0,0,18.09-4.66c19.35-6.16,36.77-16.09,53.16-27.91a262.94,262.94,0,0,0,27-22.2,99.81,99.81,0,0,0,15.72-18.25,22.82,22.82,0,0,0,4-14.51c-.46-6-.4-12.12-.51-18.19-.19-10.52-.38-21-.5-31.56-.1-9.2-.1-18.4-.15-27.6l.59-.55.4-1.22q0-21.76.05-43.53a6.48,6.48,0,0,0-.33-1.31c-6.73-.37-13.42-.93-20.12-1a90,90,0,0,0-21.68,2.45c-13.75,3.15-26.74,8.38-39.46,14.35-8.75,4.11-17.47,8.3-26.3,12.24a179.09,179.09,0,0,1-32.2,11c-1,.24-2.05.37-3.52.64a14,14,0,0,0,1.39.94c5.62,2.53,11.16,5.26,16.89,7.5a88.53,88.53,0,0,0,19.66,5.39c2.61.37,5.23.73,7.86.92a56.53,56.53,0,0,0,15.79-1c3.77-.8,7.46-2,11.35-3a15.08,15.08,0,0,1,.23,1.82c.14,10.43.33,20.85.38,31.28.1,20.77.09,41.54.22,62.31a8.39,8.39,0,0,1-1.91,5.76c-.67.8-1.34,1.59-2.05,2.35-5.06,5.43-11.28,9.22-17.81,12.55-8.21,4.19-16.84,7.33-25.48,10.5-3.1,1.13-5.64.95-8.18-.95l-.24-.16c-11.6-6.9-21.5-15.85-30.6-25.7a72.16,72.16,0,0,1-6.38-8.69,12.27,12.27,0,0,1-2-7.24q.36-40.24.51-80.5.32-62.44.57-124.89c0-11.85.11-23.71,0-35.56a19.16,19.16,0,0,1,1.72-8,44.26,44.26,0,0,1,2-4.1c4.17-7.43,9.71-13.77,17.28-17.64,12.74-6.51,25.8-12.42,38.73-18.56,1.08-.51,2.26-.82,3.63-1.31.59,1.44,1.12,2.63,1.57,3.85,3,8.27,6.21,16.5,9,24.85,3,9,5.65,18.08,8.38,27.14a22.7,22.7,0,0,1,.79,9.56,10,10,0,0,0,.1,3.32,31.05,31.05,0,0,1,.22,11.57c-1.24,7.53-4.54,14.21-8.41,20.67-1.27,2.1-2.56,4.19-3.84,6.28ZM42.25,43.34c3.28.38,6.87-2.41,7-6.67a6.81,6.81,0,0,0-7-7,6.85,6.85,0,1,0,0,13.69Zm477-6.8a6.54,6.54,0,0,0,6.77,6.8,6.65,6.65,0,0,0,6.92-6.7,6.85,6.85,0,1,0-13.69-.1Z"/><path class="cls-1" d="M298.25,214.55c1.28-2.09,2.57-4.18,3.84-6.28,3.87-6.46,7.17-13.14,8.41-20.67a31.05,31.05,0,0,0-.22-11.57,10,10,0,0,1-.1-3.32,22.7,22.7,0,0,0-.79-9.56C306.66,154.09,304,145,301,136c-2.79-8.35-6-16.58-9-24.85-.45-1.22-1-2.41-1.57-3.85-1.37.49-2.55.8-3.63,1.31-12.93,6.14-26,12-38.73,18.56-7.57,3.87-13.11,10.21-17.28,17.64a44.26,44.26,0,0,0-2,4.1,19.16,19.16,0,0,0-1.72,8c.07,11.85,0,23.71,0,35.56q-.27,62.45-.57,124.89-.19,40.25-.51,80.5a12.27,12.27,0,0,0,2,7.24,72.16,72.16,0,0,0,6.38,8.69c9.1,9.85,19,18.8,30.6,25.7l.24.16c2.54,1.9,5.08,2.08,8.18.95,8.64-3.17,17.27-6.31,25.48-10.5,6.53-3.33,12.75-7.12,17.81-12.55.71-.76,1.38-1.55,2.05-2.35a8.39,8.39,0,0,0,1.91-5.76c-.13-20.77-.12-41.54-.22-62.31-.05-10.43-.24-20.85-.38-31.28a15.08,15.08,0,0,0-.23-1.82c-3.89,1.06-7.58,2.23-11.35,3a56.53,56.53,0,0,1-15.79,1c-2.63-.19-5.25-.55-7.86-.92a88.53,88.53,0,0,1-19.66-5.39c-5.73-2.24-11.27-5-16.89-7.5a14,14,0,0,1-1.39-.94c1.47-.27,2.51-.4,3.52-.64a179.09,179.09,0,0,0,32.2-11c8.83-3.94,17.55-8.13,26.3-12.24,12.72-6,25.71-11.2,39.46-14.35A90,90,0,0,1,370,262.62c6.7.11,13.39.67,20.12,1a6.48,6.48,0,0,1,.33,1.31q0,21.76-.05,43.53c-.5.27-2-.31-1.08,1.2l.09.57c.05,9.2.05,18.4.15,27.6.12,10.52.31,21,.5,31.56.11,6.07,0,12.15.51,18.19a22.82,22.82,0,0,1-4,14.51,99.81,99.81,0,0,1-15.72,18.25,262.94,262.94,0,0,1-27,22.2c-16.39,11.82-33.81,21.75-53.16,27.91a145.51,145.51,0,0,1-18.09,4.66c-3.24.59-6.76-.06-10.12-.45a80.53,80.53,0,0,1-8.81-1.7,6.84,6.84,0,0,1-2.72-1.36q-9.47-7.72-18.84-15.58t-18.38-15.68c-5-4.27-10-8.49-14.74-12.95-6.52-6.07-13-12.23-19.22-18.58-7.45-7.59-14.34-15.67-19.8-24.85a48.92,48.92,0,0,1-6-13.44,10.73,10.73,0,0,1-.25-2c-.19-4.35-.42-8.71-.53-13.06-.27-10.05-.56-20.09-.68-30.14-.21-17.16-.41-34.32-.42-51.48,0-11.47.31-23,.53-34.41.13-6.26.36-12.51.56-18.76.18-5.68.34-11.36.57-17q.54-13.64,1.14-27.26.53-11.35,1.14-22.7c.14-2.74.42-5.48.47-8.22a3.74,3.74,0,0,1,1.79-3.28c10.31-7.25,20.45-14.76,30.9-21.81A511.77,511.77,0,0,1,237.19,92a537,537,0,0,1,54.09-24.59A18.46,18.46,0,0,1,299,66c3,.15,6.08.09,9.11,0a3.58,3.58,0,0,1,3.15,1.49q21.11,26.43,42.29,52.81c3.5,4.36,7.17,8.58,10.65,13,5,6.23,8.18,13.39,10.73,20.88a2.61,2.61,0,0,1-1.12,3.38Q356.55,170.7,339.31,184,320,198.78,300.77,213.61a16.56,16.56,0,0,1-2.19,1.21Z"/><path class="cls-1" d="M42.25,43.34a6.85,6.85,0,1,1,0-13.69,6.81,6.81,0,0,1,7,7C49.12,40.93,45.53,43.72,42.25,43.34Z"/><path class="cls-1" d="M519.24,36.54a6.85,6.85,0,1,1,13.69.1,6.65,6.65,0,0,1-6.92,6.7A6.54,6.54,0,0,1,519.24,36.54Z"/><path class="cls-3" d="M389.36,309.7c-.88-1.51.58-.93,1.08-1.2-.14.41-.27.82-.4,1.22Z"/><path class="cls-4" d="M298.43,215.33c-.18.2-.31.49-.53.59a3.26,3.26,0,0,1-.94.17l.63-.88Z"/><path class="cls-5" d="M298.43,215.33l-.84-.12.66-.66.33.27A4.91,4.91,0,0,1,298.43,215.33Z"/><path class="cls-6" d="M389.36,309.7l.68,0-.59.55Z"/></g></svg>