<svg xmlns="http://www.w3.org/2000/svg" viewBox="0 0 566.93 722.83"><defs><style>.cls-1{fill:#212121;}.cls-2{fill:#e0c141;}</style></defs><g id="hufflepuff"><path class="cls-1" d="M558.46,716,283.84,535.36,9.1,716Q10.48,360.91,11.87,6.8H558.46Zm-540-19.47L283.58,522.41a3.48,3.48,0,0,1,.56.07.85.85,0,0,1,.26.11l263,172.69a4.94,4.94,0,0,0,.49.3,3,3,0,0,0,.52.22.58.58,0,0,0,.26,0,1.51,1.51,0,0,0,.26-.12c.55-3.74.37-681.55-.19-683.56H21.15Q19.82,354.18,18.47,696.49Z"/><path class="cls-2" d="M18.47,696.49Q19.81,353.8,21.15,12.15H548.78c.56,2,.74,679.82.19,683.56a1.51,1.51,0,0,1-.26.12.58.58,0,0,1-.26,0,3,3,0,0,1-.52-.22,4.94,4.94,0,0,1-.49-.3l-263-172.69a.85.85,0,0,0-.26-.11,3.48,3.48,0,0,0-.56-.07ZM285.4,67.59l-.15.54q2.33,1.19,4.64,2.38c5,2.6,9.75,5.46,13.77,9.44,2.57,2.53,4.5,5.43,4.81,9.1.41,4.8.9,9.62.89,14.44q-.17,77-.49,154v3.16c-3.89,2.24-7.64,4.44-11.44,6.56-13.48,7.54-27.25,14.47-41.8,19.73-.94.34-1.91.59-3.23,1,0-1.45,0-2.47,0-3.5q-.36-33.81-.71-67.64-.48-54.56-.89-109.13a27,27,0,0,1,.41-5.08c1.14-6.31,4.49-11.37,9-15.73.86-.82,1.64-1.71,2.49-2.6-2.9-.58-100.62-.5-102.79.06,0,.07,0,.18.1.22l2.23,1.25c11.26,6.55,17.05,16.3,17.19,29.37q.38,34.67.74,69.34.47,49.59.87,99.18c0,.93,0,1.86,0,2.81a4.12,4.12,0,0,1-1.07,0c-1.27-.38-2.54-.76-3.78-1.2-7.1-2.48-13.87-5.6-19.77-10.36-6.66-5.38-10.58-12.17-11.15-20.89a9.58,9.58,0,0,1,4.56-9.39,22.84,22.84,0,0,1,4.05-2c5.18-2.07,10.4-4.07,15.59-6.12.66-.25,1.27-.61,2.33-1.12a51.65,51.65,0,0,0-17.44.21A78,78,0,0,0,133.9,243c-5.89,3-4.94,1.24-4.73,7.76.68,21,10.19,36.63,28.63,46.76a89.92,89.92,0,0,0,19.49,7.71c1.26.34,2.5.71,3.77,1.08.12,7.34.28,14.44.35,21.54q.43,43,.84,86.11c.11,11-4.49,19.53-13.34,25.88a59.58,59.58,0,0,1-14.69,7.34,16.32,16.32,0,0,0-1.6.72c42,.8,84,1.56,125.92,1.68a30.4,30.4,0,0,0-4-2.21c-6.25-3.12-12-6.91-16.18-12.64-3.09-4.23-5-8.86-4.87-14.24.09-2.84-.09-5.68-.12-8.53q-.48-48.74-.93-97.48c0-.83,0-1.66,0-2.62,19.89-5.16,38.15-13.75,56.4-23.47,0,1.54,0,2.55,0,3.57q-.18,46.89-.37,93.79c-.07,19.42-.09,38.84-.19,58.26a16.62,16.62,0,0,1-.75,5,34.11,34.11,0,0,1-8,13.28A47.85,47.85,0,0,1,286,472c-.63.31-1.22.68-1.83,1l.13.48,115.87,1.67a6.79,6.79,0,0,0-2.56-1.75c-5.53-2.56-10.83-5.45-15.23-9.75a19.69,19.69,0,0,1-6.22-14.44c-.32-24.72-.8-49.44-1.19-74.16q-.53-32-1-63.94-.48-30.56-1-61.09c0-.74.07-1.48.12-2.29a61.17,61.17,0,0,1,16.18-6.94,22.32,22.32,0,0,1,18,2.91,40.67,40.67,0,0,1,9.75,9c.62.77,1.27,1.52,1.91,2.28a6.32,6.32,0,0,0,.53-2.9,43.9,43.9,0,0,1,2.8-14.15,46.52,46.52,0,0,1,13.65-18.91c.74-.64,1.45-1.32,2.4-2.19a131.65,131.65,0,0,0-17.84-5.41,43.76,43.76,0,0,0-27.55,2.2c-5.92,2.51-11.76,5.2-17.63,7.82-.89.4-1.77.83-3,1.4,0-1.35,0-2.19,0-3-.25-12.5-.52-25-.74-37.5q-.7-41.49-1.4-83a19.18,19.18,0,0,1,2.16-9.57A68.74,68.74,0,0,1,377,82.07,88.5,88.5,0,0,1,389.82,68.4c.67-.61,1.44-1.11,2.16-1.66l-.41-.79ZM533.83,37.73c.5-3.75-3.11-7.53-7.18-7.37s-7.18,3-7.26,7.1a7.14,7.14,0,0,0,7.26,7.4A7,7,0,0,0,533.83,37.73Zm-478.2-.24a6.74,6.74,0,0,0-7.12-7.08,7,7,0,0,0-7.28,7.29,7.24,7.24,0,0,0,7.21,7.19C52,45,56.06,41.85,55.63,37.49Z"/><path class="cls-1" d="M285.4,67.59,391.57,66l.41.79c-.72.55-1.49,1.05-2.16,1.66A88.5,88.5,0,0,0,377,82.07a68.74,68.74,0,0,0-4.75,7.73,19.18,19.18,0,0,0-2.16,9.57q.76,41.49,1.4,83c.22,12.5.49,25,.74,37.5,0,.85,0,1.69,0,3,1.22-.57,2.1-1,3-1.4,5.87-2.62,11.71-5.31,17.63-7.82a43.76,43.76,0,0,1,27.55-2.2,131.65,131.65,0,0,1,17.84,5.41c-.95.87-1.66,1.55-2.4,2.19A46.52,46.52,0,0,0,422.22,238a43.9,43.9,0,0,0-2.8,14.15,6.32,6.32,0,0,1-.53,2.9c-.64-.76-1.29-1.51-1.91-2.28a40.67,40.67,0,0,0-9.75-9,22.32,22.32,0,0,0-18-2.91,61.17,61.17,0,0,0-16.18,6.94c0,.81-.13,1.55-.12,2.29q.5,30.54,1,61.09.51,32,1,63.94c.39,24.72.87,49.44,1.19,74.16a19.69,19.69,0,0,0,6.22,14.44c4.4,4.3,9.7,7.19,15.23,9.75a6.79,6.79,0,0,1,2.56,1.75L284.3,473.5l-.13-.48c.61-.34,1.2-.71,1.83-1a47.85,47.85,0,0,0,13.57-9.68,34.11,34.11,0,0,0,8-13.28,16.62,16.62,0,0,0,.75-5c.1-19.42.12-38.84.19-58.26q.16-46.89.37-93.79c0-1,0-2,0-3.57-18.25,9.72-36.51,18.31-56.4,23.47,0,1,0,1.79,0,2.62q.47,48.75.93,97.48c0,2.85.21,5.69.12,8.53-.16,5.38,1.78,10,4.87,14.24,4.18,5.73,9.93,9.52,16.18,12.64a30.4,30.4,0,0,1,4,2.21c-42-.12-83.88-.88-125.92-1.68a16.32,16.32,0,0,1,1.6-.72,59.58,59.58,0,0,0,14.69-7.34c8.85-6.35,13.45-14.87,13.34-25.88q-.47-43.05-.84-86.11c-.07-7.1-.23-14.2-.35-21.54-1.27-.37-2.51-.74-3.77-1.08a89.92,89.92,0,0,1-19.49-7.71c-18.44-10.13-28-25.79-28.63-46.76C129,244.26,128,246,133.9,243a78,78,0,0,1,20.51-7.34,51.65,51.65,0,0,1,17.44-.21c-1.06.51-1.67.87-2.33,1.12-5.19,2-10.41,4-15.59,6.12a22.84,22.84,0,0,0-4.05,2,9.58,9.58,0,0,0-4.56,9.39c.57,8.72,4.49,15.51,11.15,20.89,5.9,4.76,12.67,7.88,19.77,10.36,1.24.44,2.51.82,3.78,1.2a4.12,4.12,0,0,0,1.07,0c0-.95,0-1.88,0-2.81q-.43-49.59-.87-99.18-.33-34.68-.74-69.34c-.14-13.07-5.93-22.82-17.19-29.37l-2.23-1.25c-.05,0-.07-.15-.1-.22,2.17-.56,99.89-.64,102.79-.06-.85.89-1.63,1.78-2.49,2.6-4.56,4.36-7.91,9.42-9,15.73a27,27,0,0,0-.41,5.08q.4,54.57.89,109.13.31,33.82.71,67.64c0,1,0,2,0,3.5,1.32-.41,2.29-.66,3.23-1,14.55-5.26,28.32-12.19,41.8-19.73,3.8-2.12,7.55-4.32,11.44-6.56v-3.16q.27-77,.49-154c0-4.82-.48-9.64-.89-14.44-.31-3.67-2.24-6.57-4.81-9.1-4-4-8.81-6.84-13.77-9.44q-2.31-1.2-4.64-2.38Z"/><path class="cls-1" d="M533.83,37.73a7,7,0,0,1-7.18,7.13,7.14,7.14,0,0,1-7.26-7.4c.08-4.11,3.13-6.93,7.26-7.1S534.33,34,533.83,37.73Z"/><path class="cls-1" d="M55.63,37.49c.43,4.36-3.68,7.51-7.19,7.4a7.24,7.24,0,0,1-7.21-7.19,7,7,0,0,1,7.28-7.29A6.74,6.74,0,0,1,55.63,37.49Z"/></g></svg>