<svg xmlns="http://www.w3.org/2000/svg" viewBox="0 0 566.93 722.83"><defs><style>.cls-1{fill:#333;}.cls-2{fill:#212121;}.cls-3{fill:#e0c141;}</style></defs><g id="hufflepuff"><path class="cls-1" d="M556.71,180.08s-6.06,106.69-13.64,164.28c-10.82,82.2-31.83,159.15-31.83,159.15s-37.89,54.57-92.46,97c-100.34,78-124.28,89.42-134.89,89.42S249.33,678.56,149,600.52c-54.57-42.44-92.46-97-92.46-97s-21-76.95-31.83-159.15c-7.58-57.59-13.64-164.28-13.64-164.28s13.64-10,37.89-20.63c15.08-6.59,36.38-15.16,36.38-15.16L83.81,68.51s113.68-50,200.08-50S484,68.51,484,68.51l-1.52,75.78s21.3,8.57,36.38,15.16C543.07,170.06,556.71,180.08,556.71,180.08Z"/><path class="cls-2" d="M528.45,192.46s-5.45,95.85-12.26,147.6c-9.72,73.85-28.6,143-28.6,143s-34,49-83.06,87.15c-90.15,70.12-111.66,80.35-121.2,80.35s-31-10.23-121.19-80.35C113.12,532.07,79.07,483,79.07,483s-18.87-69.13-28.59-143c-6.81-51.75-12.26-147.6-12.26-147.6s12.26-9,34-18.53C85.81,168,105,160.31,105,160.31l-1.37-68.09S205.72,47.29,283.33,47.29,463.08,92.22,463.08,92.22l-1.36,68.09s19.13,7.69,32.68,13.62C516.19,183.46,528.45,192.46,528.45,192.46Z"/><path class="cls-3" d="M515.86,205.51S510.72,296,504.3,344.8c-9.18,69.69-27,134.93-27,134.93S445.18,526,398.92,562c-85.07,66.17-105.38,75.82-114.37,75.82s-29.3-9.65-114.37-75.82c-46.27-36-78.39-82.25-78.39-82.25S74,414.49,64.8,344.8C58.37,296,53.23,205.51,53.23,205.51S64.8,197,85.36,188c12.79-5.59,30.84-12.85,30.84-12.85l-1.28-64.26s96.38-42.4,169.63-42.4,169.63,42.4,169.63,42.4l-1.29,64.26S471,182.43,483.74,188C504.3,197,515.86,205.51,515.86,205.51Z"/><path class="cls-2" d="M478.62,223.91s-4.31,76-9.71,117c-7.7,58.52-22.66,113.3-22.66,113.3s-27,38.84-65.82,69.06c-71.43,55.55-88.48,63.66-96,63.66s-24.6-8.11-96-63.66c-38.84-30.22-65.82-69.06-65.82-69.06s-15-54.78-22.66-113.3c-5.39-41-9.71-117-9.71-117s9.71-7.13,27-14.69c10.74-4.69,25.9-10.79,25.9-10.79l-1.08-54s80.93-35.6,142.43-35.6,142.43,35.6,142.43,35.6l-1.08,54s15.16,6.1,25.9,10.79C468.91,216.78,478.62,223.91,478.62,223.91Z"/><path class="cls-1" d="M470.32,229.27s-4.13,72.7-9.3,112c-7.37,56-21.69,108.46-21.69,108.46s-25.82,37.18-63,66.1C308,569,291.63,576.72,284.4,576.72s-23.55-7.75-91.93-60.94c-37.19-28.92-63-66.1-63-66.1s-14.31-52.44-21.69-108.46c-5.16-39.25-9.3-112-9.3-112s9.3-6.83,25.83-14.06c10.27-4.49,24.79-10.33,24.79-10.33l-1-51.65s77.47-34.08,136.35-34.08,136.34,34.08,136.34,34.08l-1,51.65s14.51,5.84,24.79,10.33C461,222.44,470.32,229.27,470.32,229.27Z"/><path class="cls-3" d="M462.74,232.51s-4,69.71-8.91,107.34c-7.08,53.71-20.8,104-20.8,104s-24.76,35.65-60.41,63.39c-65.57,51-81.21,58.43-88.15,58.43s-22.58-7.44-88.14-58.43c-35.65-27.74-60.41-63.39-60.41-63.39s-13.73-50.28-20.8-104c-5-37.63-8.91-107.34-8.91-107.34S115.12,226,131,219c9.85-4.31,23.76-9.91,23.76-9.91l-1-49.51S228,126.92,284.47,126.92,415.2,159.61,415.2,159.61l-1,49.51s13.92,5.6,23.77,9.91C453.83,226,462.74,232.51,462.74,232.51Z"/><path class="cls-2" d="M209.82,429.36q14.06-1,18.86-5.92t4.81-20.12V277.17q0-16.07-4.88-20.29t-18.79-5.75v-7.24h91.76q36.48,0,55.48,11.84t19,40.66a50.08,50.08,0,0,1-7.45,26.38Q361.17,335.1,344,342.61A88,88,0,0,1,318.15,349q-13,1.11-38.43,1.11v53.19q0,15.74,5.29,20.61t19.77,5.43v7.24h-95Zm103.87-95q13.5-8.64,13.51-37.18,0-19.49-6.55-31.47t-25.06-12c-5.66,0-9.73.67-12.18,2s-3.69,4-3.69,7.86v76.59Q305.19,339.83,313.69,334.4Z"/></g></svg>