<svg id="ravenclaw" xmlns="http://www.w3.org/2000/svg" viewBox="0 0 566.93 722.83"><defs><style>.cls-1{fill:#959171;}.cls-2{fill:#918e70;}.cls-3{fill:#193c62;}</style></defs><path class="cls-1" d="M559.08,717.32C540.19,705.08,522,693,503.65,680.94s-36.68-24.11-55-36.17l-55-36.19-55-36.16c-18.33-12.06-36.66-24.1-55.16-36.26L8.5,717c-1.18-1.23-.8-2.43-.79-3.5.07-13.6.24-27.19.28-40.78q.19-55.77.31-111.52.25-77.43.57-154.87.29-70.31.57-140.6.3-75.44.57-150.87.21-52.9.46-105.81c0-1,0-2,0-3,2.4-.62,545.17-.72,548.41-.15.07.67.16,1.4.21,2.13,0,.47,0,1,0,1.43l.18,668.83q0,17.69,0,35.36C559.27,714.65,559.17,715.65,559.08,717.32ZM549.81,11.23c-3.85-.62-527.57-.46-529.71.11-.15,2.51-.43,5.06-.44,7.61q-.33,70.88-.59,141.74-.3,74.58-.57,149.16L17.93,455.3q-.29,71.3-.56,142.59-.15,48.5-.17,97c0,.8.1,1.6.17,2.73,1.13-.67,1.95-1.11,2.72-1.62l29.07-19.05,54.3-35.64,53.34-35q28.09-18.46,56.2-36.9l62.36-41c2.69-1.77,5.38-3.52,8.17-5.33L549.81,697.87Z"/><path class="cls-1" d="M176.8,119.57c-1.15-.43-2.16-.7-3.08-1.15a5.18,5.18,0,0,1-3.23-5.21c.11-3-.23-3.6-2.91-4.15-9.1-1.86-18.12-4.16-27.43-4.79-3.2-.22-5.16-1.48-5-5.44.17-4.49,1.87-6.72,6.33-7.68a8.32,8.32,0,0,1,1.68-.33q11,.08,21.93.21c.75,0,1.51.12,2.27.12,21.19,0,42.37.08,63.56,0,5.21,0,10.41-.55,15.61-.95a21.2,21.2,0,0,0,4.1-1c4.79-1.37,9.56-.86,14.38-.09a55.13,55.13,0,0,0,7.05.41,1.84,1.84,0,0,0,1.27-.52c3.24-3.42,7.34-3.15,11.43-2.56,10.79,1.55,20.93,5.38,31,9.32a113.3,113.3,0,0,1,35.08,21.9c7,6.35,13.55,13.1,18.44,21.19a163.67,163.67,0,0,1,8.12,16.29,14.38,14.38,0,0,1,1.19,5.54c.26,9.78.26,19.57-1.89,29.19-1.6,7.1-5.21,13.2-9.63,18.89-9.33,12-20.82,21.52-33.5,29.74a107.49,107.49,0,0,1-19.36,10.21c-1.76.69-3.58,1.22-5.73,2,.2,1.27.35,2.55.6,3.8.75,3.81,1.71,7.58,2.29,11.41a24.94,24.94,0,0,0,3.67,10.3c4,6.11,7.71,12.44,11.17,18.87q8.46,15.68,16.42,31.62c4.86,9.67,9.31,19.55,14.22,29.2,3.82,7.53,7.86,15,12.21,22.21a67.39,67.39,0,0,0,8.12,10.24c5.94,6.54,12.09,12.88,18.16,19.29.68.72,1.47,1.34,2.2,2l.56-.25c0-1.1-.08-2.2,0-3.29.57-6.42,3.2-11.71,8.86-15.09a19.08,19.08,0,0,1,10.7-2.4,40.74,40.74,0,0,1,8.14,1.15c8.26,2.09,13.8,9.2,14.55,17.7,1,11-3.17,20-9.92,28.23-1.45,1.76-3,3.39-4.5,5.14a22.19,22.19,0,0,0-2.31,3.24c-1.78,3.14-4.29,4.31-7.8,3.45a4.75,4.75,0,0,1-1.87-.62c-3-2.6-6.44-1.23-9.73-1.15-1.23,0-2.45.27-3.68.32-4.83.22-9.66.4-14.5.57a17.34,17.34,0,0,1-8.26-1.83c-11.14-5.4-21.8-11.58-31.17-19.79a57.28,57.28,0,0,1-11.77-14.94c-9.91-17.44-21.21-34-31.89-50.95-6.57-10.45-12.79-21.12-19.19-31.67a85.56,85.56,0,0,0-11.25-15.36c-2.46-2.54-4.21-5.83-6-9-2.56-4.55-4.74-9.31-7.29-13.87a72.32,72.32,0,0,0-11.05-14.44c-2.87-3-5.71-6.1-8.42-9.27-1.44-1.69-3.07-1.49-5-1.2a16.1,16.1,0,0,0-.16,2c.12,2.74.33,5.49.41,8.24.26,8.73.4,17.47.71,26.21.3,8.34.73,16.69,1.14,25q.51,10.51,1.13,21c.53,8.9,1,17.81,1.75,26.69.36,4.33,1.3,8.61,1.89,12.92.35,2.63.61,5.28.75,7.93.28,5.11.43,10.24.68,15.36a12.73,12.73,0,0,0,.51,3.37,5.21,5.21,0,0,0,1.53,2.55c7.06,5.07,14.5,9.33,23.17,11.1a29.7,29.7,0,0,1,7.46,2.68,6.53,6.53,0,0,1,3.34,8.44c-1.7,5-5,8.89-9.14,12.11a7.68,7.68,0,0,1-5.7,1.31c-12.42-1.28-24.87-.58-37.3-.59-4.17,0-8.35.25-12.51.58-2.44.19-4.83.9-7.27,1.14-4.43.42-8.88.84-13.33.93-15.38.29-30.77.3-46.15.71-8.24.21-9.26-6.47-6.86-11.4a7.49,7.49,0,0,1,3.36-3.27,51.53,51.53,0,0,1,8.57-3A39.33,39.33,0,0,0,178.45,416a11.65,11.65,0,0,0,1.18-4.07,68.4,68.4,0,0,0,.63-8.8c-.11-10.16-.36-20.32-.62-30.48-.12-5.13-.51-10.25-.55-15.37q-.36-47.62-.62-95.24-.22-32.49-.57-65c-.09-7.88.24-15.84-.68-23.63-1.62-13.68-.61-27.34-.79-41-.05-3.41.24-6.83.37-10.24C176.83,121.28,176.8,120.44,176.8,119.57Zm57.3,121.56c3.12,0,6.09.35,9-.07q13.23-1.92,26.36-4.36c9-1.69,18-3.69,27-5.49a8.47,8.47,0,0,0,4.63-2.58c9.53-9.94,15.59-21.31,15.63-35.53s-.55-28.47-3.07-42.54a120.38,120.38,0,0,0-6.23-23.34,8.41,8.41,0,0,0-4.52-4.82,111.69,111.69,0,0,0-40.34-10.07c-2.84-.15-5.67-.46-8.5-.8a40.83,40.83,0,0,0-15.26.64c-4.82,1.26-4.9,1.27-4,6.25,1.69,9.47,2.15,19,2.44,28.6.12,3.69-.17,7.4-.42,11.09-.35,5-.76,10-1.33,15a25.52,25.52,0,0,1-1.63,7.18,20.76,20.76,0,0,0-1.52,8c-.34,13.68-.41,27.37.55,41C233.13,233.23,233.66,237.08,234.1,241.13Z"/><path class="cls-2" d="M540.55,30.28a6.39,6.39,0,0,1-6.28,6.06A6.6,6.6,0,0,1,528.19,30a6.37,6.37,0,0,1,6.34-6A6.23,6.23,0,0,1,540.55,30.28Z"/><path class="cls-2" d="M36.54,30c-.3-3.42,2.92-6,5.82-6a6.15,6.15,0,0,1,6.2,6.08,6.31,6.31,0,0,1-6.08,6.25A6.05,6.05,0,0,1,36.54,30Z"/><path class="cls-3" d="M549.81,11.23V697.87L283.53,523c-2.79,1.81-5.48,3.56-8.17,5.33l-62.36,41q-28.09,18.45-56.2,36.9l-53.34,35-54.3,35.64L20.09,696c-.77.51-1.59.95-2.72,1.62-.07-1.13-.17-1.93-.17-2.73q.07-48.48.17-97,.24-71.29.56-142.59l.57-145.45q.29-74.58.57-149.16.27-70.86.59-141.74c0-2.55.29-5.1.44-7.61C22.24,10.77,546,10.61,549.81,11.23Zm-373,108.34c0,.87,0,1.71,0,2.55-.13,3.41-.42,6.83-.37,10.24.18,13.66-.83,27.32.79,41,.92,7.79.59,15.75.68,23.63q.34,32.5.57,65,.33,47.63.62,95.24c0,5.12.43,10.24.55,15.37.26,10.16.51,20.32.62,30.48a68.4,68.4,0,0,1-.63,8.8,11.65,11.65,0,0,1-1.18,4.07,39.33,39.33,0,0,1-25.72,20.47,51.53,51.53,0,0,0-8.57,3,7.49,7.49,0,0,0-3.36,3.27c-2.4,4.93-1.38,11.61,6.86,11.4,15.38-.41,30.77-.42,46.15-.71,4.45-.09,8.9-.51,13.33-.93,2.44-.24,4.83-.95,7.27-1.14,4.16-.33,8.34-.59,12.51-.58,12.43,0,24.88-.69,37.3.59a7.68,7.68,0,0,0,5.7-1.31c4.11-3.22,7.44-7.09,9.14-12.11a6.53,6.53,0,0,0-3.34-8.44,29.7,29.7,0,0,0-7.46-2.68c-8.67-1.77-16.11-6-23.17-11.1a5.21,5.21,0,0,1-1.53-2.55,12.73,12.73,0,0,1-.51-3.37c-.25-5.12-.4-10.25-.68-15.36-.14-2.65-.4-5.3-.75-7.93-.59-4.31-1.53-8.59-1.89-12.92-.74-8.88-1.22-17.79-1.75-26.69q-.63-10.51-1.13-21c-.41-8.34-.84-16.69-1.14-25-.31-8.74-.45-17.48-.71-26.21-.08-2.75-.29-5.5-.41-8.24a16.1,16.1,0,0,1,.16-2c2-.29,3.59-.49,5,1.2,2.71,3.17,5.55,6.24,8.42,9.27a72.32,72.32,0,0,1,11.05,14.44c2.55,4.56,4.73,9.32,7.29,13.87,1.77,3.13,3.52,6.42,6,9a85.56,85.56,0,0,1,11.25,15.36c6.4,10.55,12.62,21.22,19.19,31.67,10.68,16.95,22,33.51,31.89,50.95A57.28,57.28,0,0,0,346.62,425c9.37,8.21,20,14.39,31.17,19.79a17.34,17.34,0,0,0,8.26,1.83c4.84-.17,9.67-.35,14.5-.57,1.23-.05,2.45-.29,3.68-.32,3.29-.08,6.72-1.45,9.73,1.15a4.75,4.75,0,0,0,1.87.62c3.51.86,6-.31,7.8-3.45a22.19,22.19,0,0,1,2.31-3.24c1.46-1.75,3.05-3.38,4.5-5.14,6.75-8.19,10.88-17.25,9.92-28.23-.75-8.5-6.29-15.61-14.55-17.7a40.74,40.74,0,0,0-8.14-1.15A19.08,19.08,0,0,0,407,391c-5.66,3.38-8.29,8.67-8.86,15.09-.1,1.09,0,2.19,0,3.29l-.56.25c-.73-.67-1.52-1.29-2.2-2-6.07-6.41-12.22-12.75-18.16-19.29a67.39,67.39,0,0,1-8.12-10.24c-4.35-7.24-8.39-14.68-12.21-22.21-4.91-9.65-9.36-19.53-14.22-29.2q-8-15.92-16.42-31.62c-3.46-6.43-7.17-12.76-11.17-18.87a24.94,24.94,0,0,1-3.67-10.3c-.58-3.83-1.54-7.6-2.29-11.41-.25-1.25-.4-2.53-.6-3.8,2.15-.73,4-1.26,5.73-2a107.49,107.49,0,0,0,19.36-10.21c12.68-8.22,24.17-17.76,33.5-29.74,4.42-5.69,8-11.79,9.63-18.89,2.15-9.62,2.15-19.41,1.89-29.19a14.38,14.38,0,0,0-1.19-5.54,163.67,163.67,0,0,0-8.12-16.29c-4.89-8.09-11.43-14.84-18.44-21.19a113.3,113.3,0,0,0-35.08-21.9c-10.07-3.94-20.21-7.77-31-9.32-4.09-.59-8.19-.86-11.43,2.56a1.84,1.84,0,0,1-1.27.52,55.13,55.13,0,0,1-7.05-.41c-4.82-.77-9.59-1.28-14.38.09a21.2,21.2,0,0,1-4.1,1c-5.2.4-10.4.92-15.61.95-21.19.1-42.37,0-63.56,0-.76,0-1.52-.12-2.27-.12q-11-.12-21.93-.21a8.32,8.32,0,0,0-1.68.33c-4.46,1-6.16,3.19-6.33,7.68-.15,4,1.81,5.22,5,5.44,9.31.63,18.33,2.93,27.43,4.79,2.68.55,3,1.14,2.91,4.15a5.18,5.18,0,0,0,3.23,5.21C174.64,118.87,175.65,119.14,176.8,119.57ZM540.55,30.28a6.23,6.23,0,0,0-6-6.29,6.37,6.37,0,0,0-6.34,6,6.6,6.6,0,0,0,6.08,6.35A6.39,6.39,0,0,0,540.55,30.28ZM36.54,30a6.05,6.05,0,0,0,5.94,6.3,6.31,6.31,0,0,0,6.08-6.25A6.15,6.15,0,0,0,42.36,24C39.46,24,36.24,26.6,36.54,30Z"/><path class="cls-3" d="M234.1,241.13c-.44-4-1-7.9-1.24-11.77-1-13.66-.89-27.35-.55-41a20.76,20.76,0,0,1,1.52-8,25.52,25.52,0,0,0,1.63-7.18c.57-5,1-10,1.33-15,.25-3.69.54-7.4.42-11.09-.29-9.57-.75-19.13-2.44-28.6-.89-5-.81-5,4-6.25a40.83,40.83,0,0,1,15.26-.64c2.83.34,5.66.65,8.5.8a111.69,111.69,0,0,1,40.34,10.07,8.41,8.41,0,0,1,4.52,4.82,120.38,120.38,0,0,1,6.23,23.34c2.52,14.07,3.1,28.27,3.07,42.54s-6.1,25.59-15.63,35.53a8.47,8.47,0,0,1-4.63,2.58c-9,1.8-18,3.8-27,5.49q-13.12,2.45-26.36,4.36C240.19,241.48,237.22,241.13,234.1,241.13Z"/></svg>