<svg id="ravenclaw" xmlns="http://www.w3.org/2000/svg" viewBox="0 0 566.93 722.83"><defs><style>.cls-1{fill:#959171;}.cls-2{fill:#77735d;}.cls-3{fill:#193c62;}</style></defs><path class="cls-1" d="M559.29,188s-6.07,106.69-13.65,164.29c-10.82,82.2-31.83,159.15-31.83,159.15s-37.89,54.56-92.45,97c-100.34,78-124.29,89.43-134.9,89.43s-34.56-11.38-134.9-89.43C97,566,59.1,511.44,59.1,511.44s-21-76.95-31.83-159.15C19.69,294.69,13.63,188,13.63,188s13.64-10,37.89-20.63c15.09-6.59,36.38-15.15,36.38-15.15L86.39,76.43s113.67-50,200.07-50,200.07,50,200.07,50L485,152.22s21.29,8.56,36.37,15.15C545.64,178,559.29,188,559.29,188Z"/><path class="cls-2" d="M531,200.39s-5.45,95.85-12.26,147.6c-9.72,73.84-28.59,143-28.59,143s-34.05,49-83.07,87.15C317,648.24,295.44,658.46,285.91,658.46s-31.05-10.22-121.2-80.34C115.69,540,81.65,491,81.65,491s-18.88-69.14-28.6-143c-6.81-51.75-12.26-147.6-12.26-147.6s12.26-9,34.05-18.54c13.55-5.92,32.68-13.61,32.68-13.61l-1.36-68.09S208.29,55.21,285.91,55.21s179.75,44.94,179.75,44.94l-1.37,68.09s19.14,7.69,32.69,13.61C518.76,191.39,531,200.39,531,200.39Z"/><path class="cls-3" d="M518.44,213.44s-5.15,90.45-11.57,139.29c-9.18,69.69-27,134.93-27,134.93s-32.12,46.26-78.39,82.24c-85.07,66.17-105.37,75.82-114.37,75.82s-29.3-9.65-114.37-75.82c-46.27-36-78.39-82.24-78.39-82.24s-17.81-65.24-27-134.93C61,303.89,55.81,213.44,55.81,213.44s11.56-8.5,32.12-17.49c12.79-5.59,30.84-12.86,30.84-12.86l-1.28-64.25s96.38-42.41,169.63-42.41,169.63,42.41,169.63,42.41l-1.28,64.25s18,7.27,30.84,12.86C506.87,204.94,518.44,213.44,518.44,213.44Z"/><path class="cls-2" d="M481.2,231.84s-4.32,76-9.72,117c-7.7,58.51-22.65,113.3-22.65,113.3s-27,38.84-65.82,69.05c-71.44,55.56-88.48,63.66-96,63.66s-24.6-8.1-96-63.66c-38.84-30.21-65.82-69.05-65.82-69.05s-15-54.79-22.66-113.3c-5.39-41-9.71-117-9.71-117s9.71-7.14,27-14.69c10.73-4.69,25.89-10.79,25.89-10.79l-1.08-54S225.47,116.8,287,116.8,429.4,152.41,429.4,152.41l-1.08,54s15.16,6.1,25.9,10.79C471.48,224.7,481.2,231.84,481.2,231.84Z"/><path class="cls-1" d="M472.89,237.19s-4.13,72.71-9.3,112c-7.37,56-21.69,108.45-21.69,108.45s-25.82,37.19-63,66.11c-68.38,53.18-84.7,60.94-91.93,60.94s-23.55-7.76-91.93-60.94c-37.18-28.92-63-66.11-63-66.11s-14.31-52.44-21.69-108.45c-5.16-39.25-9.29-112-9.29-112s9.29-6.83,25.82-14.06c10.28-4.49,24.79-10.32,24.79-10.32l-1-51.65S228.09,127.08,287,127.08s136.34,34.08,136.34,34.08l-1,51.65s14.51,5.83,24.79,10.32C463.59,230.36,472.89,237.19,472.89,237.19Z"/><path class="cls-3" d="M465.31,240.43s-4,69.72-8.91,107.35c-7.07,53.71-20.8,104-20.8,104s-24.76,35.65-60.41,63.38c-65.56,51-81.21,58.43-88.15,58.43s-22.58-7.43-88.14-58.43c-35.65-27.73-60.41-63.38-60.41-63.38s-13.73-50.28-20.8-104c-5-37.63-8.91-107.35-8.91-107.35s8.91-6.54,24.76-13.48c9.85-4.3,23.77-9.9,23.77-9.9l-1-49.52S230.59,134.85,287,134.85s130.73,32.68,130.73,32.68l-1,49.52s13.92,5.6,23.77,9.9C456.4,233.89,465.31,240.43,465.31,240.43Z"/><path class="cls-1" d="M212.39,437.29q14.06-1,18.87-5.92t4.8-20.12V285.1q0-16.07-4.87-20.29t-18.8-5.75v-7.24h91.76q36.48,0,55.49,11.83t19,40.66a50.12,50.12,0,0,1-7.45,26.39q-7.44,12.32-24.57,19.84a88.15,88.15,0,0,1-25.9,6.4q-12.95,1.13-38.43,1.12v53.19q0,15.74,5.29,20.61t19.77,5.43v7.24h-95Zm103.87-95q13.51-8.62,13.51-37.17,0-19.5-6.54-31.47t-25.07-12q-8.49,0-12.18,2t-3.69,7.87v76.58Q307.77,347.75,316.26,342.32Z"/></svg>