<svg xmlns="http://www.w3.org/2000/svg" viewBox="0 0 566.93 722.83"><defs><style>.cls-1{fill:#949494;}.cls-2{fill:#00663b;}.cls-3{fill:#9fa09f;}.cls-4{fill:#8b8d8b;}</style></defs><g id="slytherin"><path class="cls-1" d="M8.42,715.91c0-1-.07-2.09-.07-3.13q.09-41.13.19-82.26.26-74,.57-148l.57-147.43.57-144q.29-73.42.57-146.86c0-11.67.21-23.33.32-35,0-.74.1-1.48.17-2.41H558.24a14.59,14.59,0,0,1,.31,1.78c.06.85,0,1.7,0,2.56q0,350.39,0,700.79c0,1.32,0,2.65-.08,4l-1.29.11c-1-.57-2-1.09-2.93-1.71l-72.45-47.65L400.1,612.91l-79.35-52.17c-11.64-7.66-23.31-15.27-34.9-23a3.67,3.67,0,0,0-4.79,0q-33.78,22.35-67.67,44.56l-81.95,53.92Q91.66,662.4,51.85,688.55,32,701.6,12.18,714.63c-.79.52-1.64.94-2.46,1.4ZM20.33,12.3v3.14q-.22,39.41-.43,78.83-.31,67.59-.57,135.18-.3,79-.58,158-.26,66.88-.55,133.77c-.12,37.76-.13,75.52-.24,113.28-.06,19.64-.25,39.27-.37,58.91,0,1.09.1,2.18.16,3.38,2.27-.16,3.58-1.51,5-2.46q36.51-23.91,73-47.89l71.07-46.67,75.34-49.48c12.92-8.48,25.85-16.93,38.72-25.48,1.81-1.2,3.1-1.44,5-.12,7,4.81,14.24,9.39,21.38,14.07q27,17.7,54,35.41l73,47.92,73.68,48.39,38.51,25.27c.82.54,1.69,1,2.67,1.54.6-4.91.37-682.83-.2-684.95Z"/><path class="cls-2" d="M20.33,12.3H548.9c.57,2.12.8,680,.2,685-1-.56-1.85-1-2.67-1.54l-38.51-25.27-73.68-48.39-73-47.92q-27-17.71-54-35.41c-7.14-4.68-14.34-9.26-21.38-14.07-1.94-1.32-3.23-1.08-5,.12-12.87,8.55-25.8,17-38.72,25.48l-75.34,49.48L95.76,646.4q-36.48,24-73,47.89c-1.45,1-2.76,2.3-5,2.46-.06-1.2-.17-2.29-.16-3.38.12-19.64.31-39.27.37-58.91.11-37.76.12-75.52.24-113.28q.23-66.88.55-133.77.32-79,.58-158,.27-67.59.57-135.18.18-39.42.43-78.83ZM333.57,226.78c1.92.5,3.64-.51,5.43-.91,16.55-3.67,33.07-7.47,49.64-11a26.15,26.15,0,0,0,11.1-5.41c5.93-4.79,9.32-10.77,7.95-18.62a44.43,44.43,0,0,0-2.71-9.21c-2.79-6.74-6-13.32-8.8-20-2.15-5.07-5.48-9.23-9.22-13.18-10.37-10.94-20.66-22-31-32.95l-9.32-10Q332.5,90.28,318.34,75.09a7.31,7.31,0,0,0-5.82-2.42c-4.92.09-9.48,1.65-14,3.41C286.7,80.75,275.78,87.24,265,93.92c-14.2,8.78-27.89,18.3-41.48,28Q193.87,143,164.22,164.17a25.88,25.88,0,0,0-3.25,2.74c-3.07,3.1-6.05,6.28-9.11,9.39-2.54,2.58-3,5.18-1,8.17a71.72,71.72,0,0,0,5.79,7.73c8.56,9.77,17.06,19.6,25.89,29.11,11.94,12.85,24.13,25.47,36.29,38.12,11.9,12.37,24,24.56,35.82,37,12.23,12.84,24.41,25.72,36.32,38.85,7.7,8.49,15,17.39,22.27,26.22a67.7,67.7,0,0,1,9.24,14,8.15,8.15,0,0,1-1.66,9.9,3.64,3.64,0,0,0-.44.77l2.55.42c-5,5.17-9.72,10.06-14.41,15-8,8.39-15.69,17-22.2,26.61-1.4,2.07-2.22,2.54-4.52,1.74a25.05,25.05,0,0,1-6.89-3.25,116.33,116.33,0,0,1-12.45-10.32,369.9,369.9,0,0,1-36.85-43.26,106.88,106.88,0,0,1-12.41-20.36,5.42,5.42,0,0,1-.26-4.08,35,35,0,0,1,12.7-17.39c3.71-2.79,7.3-5.74,10.92-8.66a25.87,25.87,0,0,0,2-1.95c-7.2,1.14-14,2.67-20.92,4.12-7.28,1.53-14.59,3-21.87,4.5a12.77,12.77,0,0,0-3.43,1.27q-9.33,5.14-18.61,10.41a38.27,38.27,0,0,0-9.77,7.27c-3.81,4.2-6,9.09-5.17,14.8a44.44,44.44,0,0,0,2.85,10.93c3.47,8.1,7.33,16,11.16,24a22,22,0,0,0,3.36,4.88c3,3.34,6.07,6.53,9.11,9.79q12.13,13,24.28,26c12.77,13.63,25.62,27.2,38.28,40.93,2.53,2.74,5.23,3.35,8.64,2.77a71.19,71.19,0,0,0,18-5.92,243.41,243.41,0,0,0,33.6-19.08q21.24-14.26,42.09-29.12c17.05-12.17,33.9-24.62,50.8-37,3.42-2.5,3-1.54,2.46-5.78,0-.16.15-.33.27-.57,1.5-.34,3.05-.71,4.61-1,3.74-.8,5.27-3.6,6.33-6.88a13.53,13.53,0,0,0-1.38-10.95,126.13,126.13,0,0,0-8-13.08c-8.5-11.81-18.53-22.31-28.74-32.61-7.95-8-16.2-15.72-24.32-23.55-10-9.68-20.14-19.28-30.1-29-24.37-23.91-48.56-48-71.58-73.23-4-4.34-7.92-8.7-11.59-13.29a24.88,24.88,0,0,1-4-7.37c-1.44-4.2-.62-8.36,1.26-12.37A68.34,68.34,0,0,1,251.46,140c3.51-3.25,7.58-5.45,12.6-4.81a23.1,23.1,0,0,1,6.32,1.39,155.47,155.47,0,0,1,15.37,7.3c9.91,5.64,19,12.47,28,19.49,9.85,7.72,19.54,15.64,28.19,24.74a57.67,57.67,0,0,1,9.47,12.39,9.61,9.61,0,0,1-3.71,12.74c-4.13,2.5-8.06,5.31-12.12,7.91C333.45,222.51,332.63,224.23,333.57,226.78ZM55.06,36.47c.52-3.41-3.39-7.41-7.18-7.15s-7.55,3.5-7.63,7.07c-.1,3.87,3.63,7.2,7.81,7.35S55.51,39.82,55.06,36.47Zm475.71.14c0-4.36-2.75-7.22-6.95-7.24a7,7,0,0,0-7.37,7.28c0,4.12,3,6.88,7.26,7.09C527.74,43.94,531.33,40.18,530.77,36.61Z"/><path class="cls-3" d="M333.57,226.78c-.94-2.55-.12-4.27,2-5.63,4.06-2.6,8-5.41,12.12-7.91a9.61,9.61,0,0,0,3.71-12.74,57.67,57.67,0,0,0-9.47-12.39c-8.65-9.1-18.34-17-28.19-24.74-9-7-18.07-13.85-28-19.49a155.47,155.47,0,0,0-15.37-7.3,23.1,23.1,0,0,0-6.32-1.39c-5-.64-9.09,1.56-12.6,4.81a68.34,68.34,0,0,0-15.28,21.38c-1.88,4-2.7,8.17-1.26,12.37a24.88,24.88,0,0,0,4,7.37c3.67,4.59,7.63,8.95,11.59,13.29,23,25.22,47.21,49.32,71.58,73.23,10,9.76,20.07,19.36,30.1,29,8.12,7.83,16.37,15.53,24.32,23.55,10.21,10.3,20.24,20.8,28.74,32.61a126.13,126.13,0,0,1,8,13.08,13.53,13.53,0,0,1,1.38,10.95c-1.06,3.28-2.59,6.08-6.33,6.88-1.56.33-3.11.7-4.61,1-.12.24-.29.41-.27.57.54,4.24,1,3.28-2.46,5.78-16.9,12.37-33.75,24.82-50.8,37Q329.32,443,308.05,457.25a243.41,243.41,0,0,1-33.6,19.08,71.19,71.19,0,0,1-18,5.92c-3.41.58-6.11,0-8.64-2.77-12.66-13.73-25.51-27.3-38.28-40.93q-12.15-13-24.28-26c-3-3.26-6.16-6.45-9.11-9.79a22,22,0,0,1-3.36-4.88c-3.83-7.94-7.69-15.87-11.16-24A44.44,44.44,0,0,1,158.77,363c-.85-5.71,1.36-10.6,5.17-14.8a38.27,38.27,0,0,1,9.77-7.27q9.28-5.25,18.61-10.41a12.77,12.77,0,0,1,3.43-1.27c7.28-1.54,14.59-3,21.87-4.5,6.87-1.45,13.72-3,20.92-4.12a25.87,25.87,0,0,1-2,1.95c-3.62,2.92-7.21,5.87-10.92,8.66A35,35,0,0,0,213,348.64a5.42,5.42,0,0,0,.26,4.08,106.88,106.88,0,0,0,12.41,20.36,369.9,369.9,0,0,0,36.85,43.26,116.33,116.33,0,0,0,12.45,10.32,25.05,25.05,0,0,0,6.89,3.25c2.3.8,3.12.33,4.52-1.74,6.51-9.62,14.23-18.22,22.2-26.61,4.69-4.95,9.44-9.84,14.41-15l-2.55-.42a3.64,3.64,0,0,1,.44-.77,8.15,8.15,0,0,0,1.66-9.9,67.7,67.7,0,0,0-9.24-14c-7.31-8.83-14.57-17.73-22.27-26.22-11.91-13.13-24.09-26-36.32-38.85-11.84-12.43-23.92-24.62-35.82-37-12.16-12.65-24.35-25.27-36.29-38.12-8.83-9.51-17.33-19.34-25.89-29.11a71.72,71.72,0,0,1-5.79-7.73c-2-3-1.55-5.59,1-8.17,3.06-3.11,6-6.29,9.11-9.39a25.88,25.88,0,0,1,3.25-2.74q29.63-21.15,59.27-42.26c13.59-9.69,27.28-19.21,41.48-28,10.81-6.68,21.73-13.17,33.59-17.84,4.48-1.76,9-3.32,14-3.41a7.31,7.31,0,0,1,5.82,2.42q14.15,15.19,28.32,30.38l9.32,10c10.32,11,20.61,22,31,32.95,3.74,4,7.07,8.11,9.22,13.18,2.84,6.72,6,13.3,8.8,20a44.43,44.43,0,0,1,2.71,9.21c1.37,7.85-2,13.83-7.95,18.62a26.15,26.15,0,0,1-11.1,5.41c-16.57,3.55-33.09,7.35-49.64,11C337.21,226.27,335.49,227.28,333.57,226.78Z"/><path class="cls-4" d="M55.06,36.47c.45,3.35-2.75,7.41-7,7.27s-7.91-3.48-7.81-7.35c.08-3.57,3.83-6.81,7.63-7.07S55.58,33.06,55.06,36.47Z"/><path class="cls-4" d="M530.77,36.61c.56,3.57-3,7.33-7.06,7.13-4.23-.21-7.25-3-7.26-7.09a7,7,0,0,1,7.37-7.28C528,29.39,530.77,32.25,530.77,36.61Z"/></g></svg>