<svg xmlns="http://www.w3.org/2000/svg" viewBox="0 0 566.93 722.83"><defs><style>.cls-1{fill:#949494;}.cls-2{fill:#7c7c7b;}.cls-3{fill:#00663b;}</style></defs><g id="slytherin"><path class="cls-1" d="M556.35,180.08s-6.07,106.69-13.65,164.28c-10.82,82.2-31.83,159.15-31.83,159.15s-37.89,54.57-92.45,97c-100.34,78-124.29,89.42-134.9,89.42S249,678.56,148.62,600.52c-54.56-42.44-92.46-97-92.46-97s-21-76.95-31.83-159.15c-7.57-57.59-13.64-164.28-13.64-164.28s13.64-10,37.89-20.63C63.67,152.86,85,144.29,85,144.29L83.45,68.51s113.67-50,200.07-50,200.07,50,200.07,50l-1.51,75.78s21.29,8.57,36.37,15.16C542.7,170.06,556.35,180.08,556.35,180.08Z"/><path class="cls-2" d="M528.08,192.46s-5.45,95.85-12.26,147.6c-9.72,73.85-28.59,143-28.59,143s-34.05,49-83.07,87.15C314,640.31,292.5,650.54,283,650.54s-31.05-10.23-121.2-80.35C112.75,532.07,78.71,483,78.71,483s-18.88-69.13-28.6-143c-6.81-51.75-12.26-147.6-12.26-147.6s12.26-9,34.05-18.53c13.55-5.93,32.68-13.62,32.68-13.62l-1.36-68.09S205.35,47.29,283,47.29,462.72,92.22,462.72,92.22l-1.37,68.09S480.49,168,494,173.93C515.82,183.46,528.08,192.46,528.08,192.46Z"/><path class="cls-3" d="M515.5,205.51S510.36,296,503.93,344.8c-9.18,69.69-27,134.93-27,134.93S444.82,526,398.55,562c-85.07,66.17-105.37,75.82-114.37,75.82s-29.3-9.65-114.37-75.82c-46.26-36-78.39-82.25-78.39-82.25s-17.81-65.24-27-134.93C58,296,52.87,205.51,52.87,205.51S64.43,197,85,188c12.79-5.59,30.84-12.85,30.84-12.85l-1.28-64.26s96.38-42.4,169.63-42.4,169.63,42.4,169.63,42.4l-1.28,64.26s18.05,7.26,30.84,12.85C503.93,197,515.5,205.51,515.5,205.51Z"/><path class="cls-2" d="M478.26,223.91s-4.32,76-9.71,117c-7.71,58.52-22.66,113.3-22.66,113.3s-27,38.84-65.82,69.06c-71.43,55.55-88.48,63.66-96,63.66s-24.6-8.11-96-63.66c-38.84-30.22-65.82-69.06-65.82-69.06s-15-54.78-22.66-113.3c-5.39-41-9.71-117-9.71-117s9.71-7.13,27-14.69c10.73-4.69,25.89-10.79,25.89-10.79l-1.07-54s80.92-35.6,142.42-35.6,142.43,35.6,142.43,35.6l-1.08,54s15.16,6.1,25.9,10.79C468.55,216.78,478.26,223.91,478.26,223.91Z"/><path class="cls-1" d="M470,229.27s-4.13,72.7-9.3,112c-7.37,56-21.69,108.46-21.69,108.46s-25.82,37.18-63,66.1C307.58,569,291.26,576.72,284,576.72S260.48,569,192.1,515.78c-37.18-28.92-63-66.1-63-66.1s-14.31-52.44-21.69-108.46c-5.16-39.25-9.29-112-9.29-112s9.29-6.83,25.82-14.06c10.28-4.49,24.79-10.33,24.79-10.33l-1-51.65S225.15,119.15,284,119.15s136.34,34.08,136.34,34.08l-1,51.65s14.51,5.84,24.79,10.33C460.65,222.44,470,229.27,470,229.27Z"/><path class="cls-3" d="M462.37,232.51s-4,69.71-8.91,107.34c-7.07,53.71-20.8,104-20.8,104s-24.76,35.65-60.41,63.39c-65.56,51-81.21,58.43-88.14,58.43s-22.58-7.44-88.15-58.43c-35.65-27.74-60.41-63.39-60.41-63.39s-13.73-50.28-20.8-104c-5-37.63-8.91-107.34-8.91-107.34S114.75,226,130.6,219c9.85-4.31,23.77-9.91,23.77-9.91l-1-49.51s74.27-32.69,130.73-32.69,130.72,32.69,130.72,32.69l-1,49.51s13.92,5.6,23.77,9.91C453.46,226,462.37,232.51,462.37,232.51Z"/><path class="cls-1" d="M209.45,429.36q14.06-1,18.87-5.92t4.8-20.12V277.17q0-16.07-4.87-20.29t-18.8-5.75v-7.24h91.76q36.48,0,55.49,11.84t19,40.66a50.08,50.08,0,0,1-7.45,26.38q-7.44,12.33-24.57,19.84a88.17,88.17,0,0,1-25.9,6.41q-12.94,1.11-38.43,1.11v53.19q0,15.74,5.29,20.61t19.77,5.43v7.24h-95Zm103.87-95q13.51-8.64,13.51-37.18,0-19.49-6.54-31.47t-25.07-12q-8.49,0-12.18,2c-2.46,1.34-3.69,4-3.69,7.86v76.59Q304.83,339.83,313.32,334.4Z"/></g></svg>